<svg xmlns="http://www.w3.org/2000/svg" width="634.832" height="377.86" viewBox="0 0 634.832 377.86"><defs><style>.a,.h{fill:#ea4c89;}.a,.c{opacity:0.1;}.b{fill:#e6e6e6;}.d{fill:#3f3d56;}.e{fill:#f2f2f2;}.f{fill:#2f2e41;}.g{fill:#ffb8b8;}</style></defs><g transform="translate(77.374 -295.45)"><g transform="translate(0 -63)"><path class="a" d="M647.956,440.448A45.607,45.607,0,0,1,635.413,455.5c-.742.594-1.5,1.167-2.269,1.729q-1.554,1.091-3.185,2.143c-8.447,5.361-18.34,9.026-28,11.7q-3.948,1.091-7.924,2.051-3.354.813-6.713,1.516c-.851.185-1.7.36-2.552.545s-1.827.365-2.727.545l-1.292.245c-24.988,4.608-50.3,5.486-75.8,4.33l-1.211-.06-1.936-.1q-7.766-.4-15.548-1.031l-1.963-.158-.867-.071q-4.363-.365-8.726-.8-5.748-.545-11.512-1.205l-.5-.055-.4-.049h0c-13.716-1.543-27.464-3.4-41.228-5.3l-1.947-.273-3.5-.485-2.945-.409h0l-.873-.12q-6.97-.976-13.939-1.931l-.753-.1c-8.726-1.194-17.5-2.345-26.248-3.392l-1.14-.136h0q-5.372-.638-10.738-1.216l-2.727-.289-3.627-.365c-10.051-1-20.1-1.794-30.12-2.29q-7.231-.36-14.5-.545-6-.136-12-.158-8.137-.038-16.306.093h-1.233c-7.673.125-15.363.344-23.057.605l-1.385.044h-.458c-16.36.578-32.721,1.347-49.038,1.9l-3.987.131h-.578q-8.507.273-17,.42H179.6l-2.53.033q-3.943.038-7.869.044h-3.212c-9.609-.027-19.18-.24-28.691-.736l-1.058-.06a363.132,363.132,0,0,1-54.7-6.806q-2.787-.584-5.563-1.222a255.447,255.447,0,0,1-36.429-11.076c-5.584-2.181-11.2-4.7-15.45-8.966-10.776-10.907-6.73-32.268,7.291-38.48,10.967-4.859,23.815-.905,35.611-3.1a18.2,18.2,0,0,0,2.143-.545,29.783,29.783,0,0,0,4.363-1.8c.48-.24.96-.5,1.445-.763A36.809,36.809,0,0,0,78.18,387.5a49.557,49.557,0,0,0,4.908-3.725q1.036-.883,2.018-1.832a38.594,38.594,0,0,0,5.955-7.128A25.193,25.193,0,0,0,92.7,371.74a16.241,16.241,0,0,0,.676-1.7,15.847,15.847,0,0,0,.649-2.52,11.66,11.66,0,0,0-4.3-11.332,11.421,11.421,0,0,0-1.091-.823,16.667,16.667,0,0,0-2.367-1.369c-.333-.158-.676-.311-1.025-.458-4.984-2.1-11.414-2.907-16.835-4.363h0a29.722,29.722,0,0,1-4.821-1.674c-.987-.458-1.969-.938-2.934-1.44h0l-.256-.142h0a65.654,65.654,0,0,1-21.269-17.451,56.853,56.853,0,0,1-3.959-5.748c-.365-.6-.72-1.216-1.058-1.832-9.582-17.288-10.569-39.44-.6-56.438a53.4,53.4,0,0,1,4.036-5.922q.72-.933,1.489-1.832c9.489-11.2,23.123-18.782,36.887-24.4,18.476-7.537,37.82-12.3,57.534-15.433q6-.954,12-1.712c16.742-2.138,33.681-3.272,50.5-4.134q23.6-1.194,47.4-1.543,8.066-.109,16.148-.093,18.209,0,36.418.7,6,.229,12,.545,15.384.8,30.709,2.181,7.362.665,14.692,1.467c37.215,4.068,73.889,10.967,109.3,21.694q6.026,1.821,12,3.817a463.324,463.324,0,0,1,43.841,16.944q2.029.911,4.046,1.832,13.41,6.152,26.439,13.257a294.029,294.029,0,0,1,33.048,20.723q6.173,4.526,12,9.445a172.565,172.565,0,0,1,19.147,18.891q.785.911,1.554,1.832,3.992,4.794,7.58,9.931c11.671,16.775,19.5,35.96,25.282,55.56C652.651,405.306,656.043,424.508,647.956,440.448Z" transform="translate(-95.34 149.11)"/><path class="a" d="M654.062,381.913H607.473V322.65H628.2q-.769-.922-1.554-1.832H607.495V301.927q-5.813-4.908-12-9.445v28.358H488.091V258.5h47.887q-2.023-.922-4.047-1.832H488.091V239.719q-6-1.98-12-3.817v20.723H322.806l-.365-.349,44.342-42.09q-7.33-.807-14.692-1.467l-30.709,29.143v-31.3q-6-.316-12-.545v33.861L272.967,209.31q-8.077,0-16.148.093l49.387,46.873-.365.349H158.907V215.14q-6,.758-12,1.712v39.811H52.476q-.769.9-1.489,1.832H146.9v62.323H47.53c.338.616.693,1.232,1.058,1.832H146.9v59.263H98.542q-.982.949-2.018,1.832H146.9v60.643q6,.856,12,1.789V383.745H309.374v75.984q6,0,12,.158V383.745h154.71v93.02l.5.055q5.759.644,11.512,1.205v-94.28H595.464V475.67c.916-.169,1.832-.349,2.727-.545s1.7-.344,2.552-.545q3.359-.714,6.713-1.516V383.745h46.966Zm-344.688,0H158.907V322.65H309.374Zm0-61.079H158.907V258.5H307.242l2.116,1.669Zm166.708,61.079h-154.7V322.65h154.7Zm0-61.079h-154.7V258.5h154.7Zm119.383,61.079H488.091V322.65H595.464Z" transform="translate(-108.781 149.14)"/></g><g transform="translate(12.413 343.588)"><path class="b" d="M516.326,380.018v91.087l15.236,24.831,1.16,1.889h60.118l1.215-117.807Z" transform="translate(-262.099 -192.92)"/><path class="c" d="M516.326,380.018v91.087l15.236,24.831.935-115.918Z" transform="translate(-262.099 -192.92)"/><path class="b" d="M141.431,375.084v91.088L126.195,491l-1.16,1.888H64.918L63.7,375.084Z" transform="translate(-32.337 -190.416)"/><path class="c" d="M204.894,375.084v91.088L189.658,491l-.935-115.918Z" transform="translate(-95.8 -190.416)"/><path class="b" d="M374.371,352.6v5.465H47.67v-7.894l30.362-15.789h269.62Z" transform="translate(-24.198 -169.756)"/><path class="c" d="M374.371,368.88v5.465H47.67v-7.894Z" transform="translate(-24.198 -186.033)"/><path class="d" d="M121.349,422.5H106.774L100.7,418.25h27.326Z" transform="translate(-51.118 -212.328)"/><path class="d" d="M121.349,458.267H106.774l-6.072-4.251h27.326Z" transform="translate(-51.118 -230.483)"/><path class="d" d="M121.349,508.832H106.774l-6.072-4.251h27.326Z" transform="translate(-51.118 -256.151)"/><path class="d" d="M121.349,559.4H106.774l-6.072-4.251h27.326Z" transform="translate(-51.118 -281.82)"/><path class="d" d="M588.371,427.434h14.574l6.073-4.251H581.691Z" transform="translate(-295.28 -214.832)"/><path class="d" d="M588.371,463.2h14.574l6.073-4.251H581.691Z" transform="translate(-295.28 -232.988)"/><path class="d" d="M588.371,513.766h14.574l6.073-4.251H581.691Z" transform="translate(-295.28 -258.656)"/><path class="d" d="M588.371,564.331h14.574l6.073-4.251H581.691Z" transform="translate(-295.28 -284.324)"/><path class="d" d="M728.544,235.615H605.85a4.64,4.64,0,0,0-4.64,4.641V322.9a4.64,4.64,0,0,0,4.641,4.64h46.575l-1.745,11.141s-9.972,5.3-2.96,5.453,40.044,0,40.044,0,6.388,0-3.74-5.609l-1.641-10.985h46.16a4.64,4.64,0,0,0,4.64-4.641V240.255a4.64,4.64,0,0,0-4.64-4.64Z" transform="translate(-425.528 -176.319)"/><rect class="e" width="123.092" height="68.869" transform="translate(180.123 64.203)"/><circle class="e" cx="0.779" cy="0.779" r="0.779" transform="translate(240.89 61.243)"/><circle class="e" cx="2.96" cy="2.96" r="2.96" transform="translate(238.709 141.954)"/><path class="d" d="M395.029,352.169v1.558H311.2v-1.247l.115-.312,2.066-5.609h79.932Z" transform="translate(-157.973 -175.936)"/><path class="d" d="M767.113,464.482c-.153.653-.729,1.342-2.032,1.993-4.674,2.337-14.179-.623-14.179-.623s-7.323-1.247-7.323-4.519a5.843,5.843,0,0,1,.642-.382c1.965-1.04,8.481-3.605,20.035.109a4.819,4.819,0,0,1,2.2,1.439A2.3,2.3,0,0,1,767.113,464.482Z" transform="translate(-497.798 -289.774)"/><path class="c" d="M767.775,464.482c-5.721,2.192-10.821,2.356-16.055-1.279a11.494,11.494,0,0,0-6.837-2.252c1.965-1.04,8.481-3.605,20.035.109a4.818,4.818,0,0,1,2.2,1.439,2.3,2.3,0,0,1,.661,1.983Z" transform="translate(-498.459 -289.774)"/><ellipse class="e" cx="2.026" cy="0.623" rx="2.026" ry="0.623" transform="translate(260.116 172.182)"/><path class="c" d="M395.029,357.952v1.558H311.2v-1.247l.115-.312Z" transform="translate(-157.973 -181.719)"/><path class="f" d="M322.912,115.144a4.212,4.212,0,0,0-2.443.546,6.372,6.372,0,0,0-1.652,2.181,26.089,26.089,0,0,1-7.107,8.028c-2.112,1.547-4.8,3.476-4.435,6.328A8.554,8.554,0,0,0,308.3,134.9c1.948,3.933,7.264,6.972,6.741,11.459,1.936-3.24-.653-4.842,1.282-8.083.922-1.543,2.523-3.285,3.915-2.316.466.324.772.906,1.257,1.191,1.158.679,2.389-.619,3.414-1.539,3.534-3.172,8.559-2.341,12.956-1.353,2.076.467,4.356,1.079,5.583,3.063,1.614,2.609-1.533,5.426-2.328,8.376a1.607,1.607,0,0,0,1.725,2c1.319-.13,2.882-.237,2.961-.816,1.66.059,3.694-.129,4.405-1.857a7.267,7.267,0,0,0,.341-2.114c.261-2.9,1.493-5.553,2.31-8.316s1.171-6-.206-8.453a9.782,9.782,0,0,0-1.8-2.194C343.037,116.381,332.757,115.133,322.912,115.144Z" transform="translate(-276.303 -115.159)"/><path class="g" d="M320.007,187.28s1.7,14.17-4.534,15.3,5.668,20.4,5.668,20.4l28.34,3.4-6.8-22.672s-4.534-1.7-1.7-13.036S320.007,187.28,320.007,187.28Z" transform="translate(-279.564 -150.413)"/><path class="g" d="M47.028,569.318,49.3,600.492H61.2l-3.4-31.174Z" transform="translate(-23.872 -289.013)"/><path class="g" d="M224.3,448.431,226,474.5l13.037-5.668-5.1-21.538Z" transform="translate(-113.861 -227.073)"/><path class="f" d="M274.167,417.751s.567,32.874,3.968,43.643,2.834,11.336,2.267,13.036-1.134.567-1.134,3.4-1.134,47.611,0,51.578-3.4,10.769,0,11.336,19.271,0,19.838-3.4-4.534-4.534-2.267-6.8,5.668-48.744,5.668-48.744l7.935-32.307,14.737-17h31.174l9.635,37.408s-3.968,10.769-1.134,10.769,19.838,3.4,19.838-9.069-5.668-49.311-6.8-50.444.567-5.1-1.134-6.8-21.538-13.6-28.906-15.87-17.7-4.965-17.7-4.965Z" transform="translate(-259.513 -256.473)"/><path class="f" d="M483.073,596.523s-8.5-2.834-12.469,5.668-2.267,10.769-2.267,10.769,13.036,4.534,15.3,2.267c.986-.986,4.119-1.329,7.343-1.4,4.91-.11,6.217-7.057,1.579-8.675q-.208-.073-.42-.126C487.607,603.891,483.073,596.523,483.073,596.523Z" transform="translate(-357.894 -359.295)"/><circle class="g" cx="17.004" cy="17.004" r="17.004" transform="translate(36.192 12.212)"/><path class="h" d="M292.941,230.465s27.773,5.668,34.574-3.4,9.635,25.506,9.635,25.506l3.4,36.275-5.1,19.838s-26.639,21.538-35.141,23.239-21.538,2.834-21.538,2.834,3.968-62.914,3.968-64.047S292.941,230.465,292.941,230.465Z" transform="translate(-261.851 -171.209)"/><path class="f" d="M288.893,212.28s-6.179-3.54-7.88-.139-17.57,11.9-19.271,11.9,3.4,47.044,1.134,52.712-13.036,47.044-6.8,50.444,1.7-3.4,7.935,5.1,36.842,8.5,38.542,5.1-13.6-28.906-10.769-52.712,7.368-56.679,3.4-61.214S288.893,212.28,288.893,212.28Z" transform="translate(-249.355 -163.654)"/><path class="f" d="M366.258,218.919l.789-2.717s20.182-.161,21.315,4.94,2.686,38.542,0,45.687-1.891,12.115,0,19.868c3.968,6.8,2.834,14.407,6.235,14.973s9.635,4.534,7.935,8.5-22.1-3.4-22.1-3.4-13.6-10.2-13.036-26.073S366.258,218.919,366.258,218.919Z" transform="translate(-306.261 -166.465)"/><path class="g" d="M396.039,338.2,366.548,383.06s-19.838,20.4-8.5,22.672,17.571-18.7,17.571-18.7L407.9,348.484Z" transform="translate(534.358 332.246) rotate(172)"/><path class="f" d="M327.6,124.184a3.859,3.859,0,0,0-1.989.386,4.635,4.635,0,0,0-1.345,1.541,19.583,19.583,0,0,1-5.785,5.674c-1.719,1.093-3.9,2.457-3.611,4.473a5.593,5.593,0,0,0,.838,1.888,14.852,14.852,0,0,1,1.8,9.257l4.727-6.871c.75-1.091,2.054-2.322,3.187-1.637.379.229.628.641,1.023.842.942.48,1.945-.438,2.779-1.088,2.877-2.242,6.967-1.655,10.547-.956,1.69.33,3.546.762,4.545,2.165,1.66,2.33-.073,5.7.9,8.39a2.474,2.474,0,0,0,1.023-1.633c1.351.042,3.007-.091,3.586-1.313a4.525,4.525,0,0,0,.278-1.494c.213-2.052,1.216-3.925,1.88-5.878s.954-4.242-.168-5.974a7.228,7.228,0,0,0-1.469-1.551C343.981,125.058,335.613,124.176,327.6,124.184Z" transform="translate(-280.161 -119.749)"/><path class="f" d="M404.5,237.61l24.514,27.25s-6.309,4.907-7.241,13.007c-1.061,7.662-3.886,10.3-3.886,10.3s-6.281-13.166-16.484-10.9Z" transform="translate(382.033 446.483) rotate(-160)"/><path class="f" d="M283.43,737.714c-1.367,1.857-1.093,4.513-2.3,6.475-1.049,1.7-3.027,2.593-4.34,4.1a11,11,0,0,0-1.116,1.605c-1.218,2.04-2.207,4.654-1.008,6.7.965,1.65,2.993,2.294,4.852,2.734a17.808,17.808,0,0,0,7.171.576,7.142,7.142,0,0,0,5.549-4.142,16,16,0,0,1,.593-1.674c1.289-2.537,5.331-2.565,6.65-5.086.923-1.765.075-3.9-.774-5.7l-2.59-5.5c-.86-1.826-4.345-.776-6.161-1.214C287.584,736.018,285.135,735.39,283.43,737.714Z" transform="translate(-259.489 -430.356)"/><path class="g" d="M254.6,376.487,278.4,413.328s14.737,18.7,19.271,10.2-15.87-22.672-15.87-22.672l-15.3-28.34Z" transform="translate(-249.579 -245.815)"/><path class="f" d="M261.327,238.969l-4.534-1.133s-9.069,2.834-11.336,14.737-.567,59.513,2.267,60.08,14-8.29,15.784-6.412-3.881-7.758-2.181-12.859S261.327,238.969,261.327,238.969Z" transform="translate(-244.406 -177.447)"/><g transform="translate(196.922 86.823)"><rect class="h" width="14.649" height="3.527" transform="translate(18.447)"/><rect class="h" width="5.154" height="3.527" transform="translate(78.672)"/><rect class="h" width="5.154" height="3.527" transform="translate(88.981)"/><rect class="h" width="34.996" height="3.527" transform="translate(38.251)"/><rect class="h" width="14.649" height="3.527" transform="translate(0 22.788)"/><rect class="h" width="5.154" height="3.527" transform="translate(60.225 22.788)"/><rect class="h" width="5.154" height="3.527" transform="translate(70.534 22.788)"/><rect class="h" width="34.996" height="3.527" transform="translate(19.804 22.788)"/><rect class="h" width="14.649" height="3.527" transform="translate(60.496 7.867)"/><rect class="h" width="14.649" height="3.527" transform="translate(80.3 7.867)"/><rect class="h" width="5.154" height="3.527" transform="translate(0 7.867)"/><rect class="h" width="5.154" height="3.527" transform="translate(10.309 7.867)"/><rect class="h" width="34.996" height="3.527" transform="translate(20.618 7.867)"/><rect class="h" width="14.649" height="3.527" transform="translate(30.113 15.463)"/><rect class="h" width="14.649" height="3.527" transform="translate(10.309 15.463)"/><rect class="h" width="5.154" height="3.527" transform="translate(0 15.463)"/><rect class="h" width="5.154" height="3.527" transform="translate(89.795 15.463)"/><rect class="h" width="34.996" height="3.527" transform="translate(49.645 15.463)"/></g></g></g></svg>